<svg width="256" height="256" viewBox="0 0 256 256" fill="none" xmlns="http://www.w3.org/2000/svg">
<path d="M128 0C231.234 0 256 24.7658 256 128C256 231.234 231.234 256 128 256C24.7657 256 0 231.234 0 128C0 24.7658 24.7657 0 128 0ZM188.916 62.2031C170.155 41.0825 141.414 28.2173 110.391 33.8086C110.341 33.8176 110.295 33.8355 110.252 33.8574C82.9469 40.2605 63.7652 53.4146 51.7441 69.7998C39.706 86.2089 34.8706 105.829 36.2188 125.082C38.9128 163.55 66.3009 200.625 110.335 207.792C110.378 207.804 110.422 207.812 110.469 207.812H210.419L210.424 207.812L210.429 207.812C210.705 207.812 210.929 207.589 210.929 207.312V163.312C210.929 163.169 210.867 163.04 210.771 162.949C210.679 162.853 210.552 162.793 210.409 162.793H116.907C94.1758 158.836 81.8206 140.328 81.1982 121.541C80.5775 102.793 91.645 83.8079 115.791 78.8096C115.836 78.8122 115.883 78.8112 115.93 78.8008C130.378 75.5427 145.947 81.4312 155.885 92.8223C165.806 104.194 170.107 121.043 162.015 139.723C161.956 139.858 161.963 140.005 162.021 140.13C162.03 140.398 162.249 140.613 162.52 140.613H206.954C206.968 140.619 206.982 140.627 206.996 140.632C207.259 140.716 207.54 140.571 207.625 140.309C216.5 112.743 207.674 83.3204 188.916 62.2031Z" fill="#05CE78"/>
</svg>
