<svg width="154" height="54" viewBox="0 0 154 54" fill="none" xmlns="http://www.w3.org/2000/svg">
<path d="M28.5596 0C51.5934 0 57.1191 5.22403 57.1191 27C57.1191 48.7759 51.5934 54 28.5596 54C5.52577 54 0 48.7759 0 27C0 5.22408 5.52577 2.07668e-05 28.5596 0ZM41.6875 13.6836C37.7189 9.38914 31.6393 6.77324 25.0771 7.91016C25.0667 7.912 25.0569 7.91548 25.0479 7.91992C19.2721 9.22191 15.2147 11.8968 12.6719 15.2285C10.1254 18.5651 9.10258 22.5549 9.3877 26.4697C9.95756 34.2919 15.7509 41.8307 25.0654 43.2881C25.0744 43.2905 25.0839 43.293 25.0938 43.293H46.2363L46.2373 43.292L46.0156 43.082C46.0744 43.0825 46.3434 43.2463 46.3447 43.1914V34.2441C46.3447 34.215 46.3311 34.1884 46.3105 34.1699C46.2913 34.1506 46.2644 34.1387 46.2344 34.1387H26.4561C21.6476 33.334 19.034 29.5702 18.9023 25.75C18.771 21.9376 21.112 18.0769 26.2197 17.0605C26.2293 17.0611 26.2392 17.0607 26.249 17.0586C29.3054 16.3961 32.5989 17.5939 34.7012 19.9102C36.7998 22.2225 37.7088 25.649 35.9971 29.4473C35.9848 29.4748 35.987 29.505 35.999 29.5303C36.0011 29.5847 36.0474 29.6279 36.1045 29.6279H45.5039C45.5068 29.6291 45.5097 29.6309 45.5127 29.6318C45.5762 29.6318 45.6276 29.6196 45.6455 29.5664C47.5228 23.9611 45.6554 17.9776 41.6875 13.6836Z" fill="#05CE78"/>
<path fill-rule="evenodd" clip-rule="evenodd" d="M86.9123 8.07072C93.4747 6.93376 99.5543 9.54981 103.523 13.8445C107.491 18.1386 109.358 24.1214 107.48 29.7267C107.462 29.7801 107.411 29.7924 107.347 29.7924C107.344 29.7915 107.341 29.7899 107.338 29.7887H97.9392C97.882 29.7887 97.8355 29.7449 97.8336 29.6904C97.8215 29.665 97.8199 29.6351 97.8324 29.6076C99.5441 25.8093 98.6344 22.3831 96.5357 20.0707C94.4335 17.7544 91.1403 16.557 88.084 17.2195C88.0741 17.2217 88.0643 17.2219 88.0546 17.2213C82.9469 18.2377 80.6059 22.0981 80.7372 25.9105C80.8688 29.7306 83.4822 33.494 88.2908 34.2987H108.069C108.099 34.2987 108.127 34.311 108.146 34.3305C108.166 34.349 108.179 34.3752 108.179 34.4044V43.3515C108.179 43.4076 107.909 43.2422 107.85 43.2422L108.072 43.4529L108.071 43.4531H86.9288C86.919 43.4531 86.9096 43.4514 86.9005 43.449C77.5858 41.9917 71.7925 34.4527 71.2226 26.6305C70.9374 22.7155 71.9602 18.7259 74.5067 15.3893C77.0496 12.0574 81.107 9.38266 86.883 8.08065C86.892 8.07618 86.9018 8.07255 86.9123 8.07072ZM103.248 13.972C99.326 9.72825 93.3294 7.14838 86.8609 8.2585C86.8549 8.26106 86.8487 8.26337 86.8421 8.26486C81.0939 9.55487 77.0734 12.2085 74.5598 15.502C72.0458 18.7962 71.0344 22.7369 71.3164 26.6086C71.8805 34.3519 77.6154 41.8051 86.8251 43.2422L107.85 43.2422L107.85 34.4945H88.1633C88.155 34.4945 88.1469 34.4932 88.1391 34.4915C83.2172 33.6688 80.543 29.8128 80.4085 25.9096C80.2739 22.0019 82.6842 18.0386 87.9229 17.0088C87.9319 17.007 87.9409 17.0067 87.9497 17.0072C91.0823 16.3405 94.4376 17.5711 96.5779 19.9293C98.7094 22.2778 99.6374 25.7459 97.9545 29.5777H107.187C108.994 24.0759 107.157 18.2025 103.248 13.972Z" fill="black"/>
<path d="M103.248 13.972C99.326 9.72825 93.3294 7.14838 86.8609 8.2585C86.8549 8.26106 86.8487 8.26337 86.8421 8.26486C81.0939 9.55487 77.0734 12.2085 74.5598 15.502C72.0458 18.7962 71.0344 22.7369 71.3164 26.6086C71.8805 34.3519 77.6154 41.8051 86.8251 43.2422L107.85 43.2422L107.85 34.4945H88.1633C88.155 34.4945 88.1469 34.4932 88.1391 34.4915C83.2172 33.6688 80.543 29.8128 80.4085 25.9096C80.2739 22.0019 82.6842 18.0386 87.9229 17.0088C87.9319 17.007 87.9409 17.0067 87.9497 17.0072C91.0823 16.3405 94.4376 17.5711 96.5779 19.9293C98.7094 22.2778 99.6374 25.7459 97.9545 29.5777H107.187C108.994 24.0759 107.157 18.2025 103.248 13.972Z" fill="black"/>
<path d="M120.223 43.7827C117.957 43.7827 116.105 43.1922 114.667 42.0111C113.243 40.8301 112.531 39.1959 112.531 37.1085C112.531 35.1035 113.243 33.5105 114.667 32.3294C116.105 31.1347 118.182 30.5373 120.898 30.5373H126.302V28.7039C126.302 27.7976 126.019 27.1041 125.452 26.6234C124.886 26.1428 124.109 25.9024 123.121 25.9024C122.467 25.9024 121.901 26.0123 121.421 26.232C120.942 26.438 120.572 26.7333 120.31 27.1178C120.049 27.5023 119.903 27.9418 119.874 28.4362H113.381C113.425 27.5435 113.613 26.6646 113.948 25.7994C114.296 24.9343 114.841 24.1515 115.582 23.4511C116.337 22.737 117.339 22.174 118.589 21.762C119.838 21.3362 121.385 21.1234 123.23 21.1234C125.089 21.1234 126.767 21.3912 128.263 21.9268C129.759 22.4486 130.943 23.2726 131.815 24.3987C132.686 25.511 133.122 26.9736 133.122 28.7863V43.4531H126.629V40.8164H126.302C126.041 41.3245 125.648 41.8051 125.125 42.2583C124.617 42.6978 123.956 43.0617 123.143 43.3501C122.344 43.6385 121.37 43.7827 120.223 43.7827ZM122.62 39.2096C123.273 39.2096 123.883 39.0929 124.45 38.8594C125.017 38.6122 125.467 38.2689 125.801 37.8295C126.135 37.39 126.302 36.875 126.302 36.2845V34.101H122.729C121.639 34.101 120.811 34.3344 120.245 34.8014C119.678 35.2545 119.395 35.8519 119.395 36.5935C119.395 37.4724 119.722 38.1316 120.375 38.571C121.044 38.9968 121.792 39.2096 122.62 39.2096Z" fill="black"/>
<path d="M136.414 43.4531V13.8518H143.365V43.4531H136.414Z" fill="black"/>
<path d="M147.049 43.4531V13.8518H154V43.4531H147.049Z" fill="black"/>
</svg>
