<svg width="73" height="30" viewBox="0 0 73 30" fill="none" xmlns="http://www.w3.org/2000/svg">
<path d="M14.2803 1C25.7971 1.00004 28.5596 3.6121 28.5596 14.5C28.5596 25.3879 25.7971 28 14.2803 28C2.7632 28 0 25.388 0 14.5C0 3.61202 2.7632 1 14.2803 1ZM14.1357 5.93555C12.5608 5.93555 11.1278 6.28077 9.83789 6.9707C8.56304 7.64569 7.55818 8.6057 6.82324 9.85059C6.0883 11.0805 5.7207 12.4986 5.7207 14.1035C5.72085 15.7081 6.08092 17.1108 6.80078 18.3105C7.5357 19.4952 8.57065 20.4108 9.90527 21.0557C11.2402 21.6855 12.7937 22.001 14.5635 22.001H22.8438V21H22.8457V19H13.8652C12.519 18.9504 11.4168 18.5272 10.5586 17.7256C9.65876 16.8558 9.20819 15.6555 9.20801 14.126C9.20801 13.1212 9.42551 12.2431 9.86035 11.4932C10.2954 10.7282 10.8812 10.1433 11.6162 9.73828C12.3661 9.33344 13.2059 9.13087 14.1357 9.13086C15.0504 9.13093 15.8755 9.33345 16.6104 9.73828C17.3601 10.1433 17.9463 10.7284 18.3662 11.4932C18.8009 12.243 19.0186 13.1213 19.0186 14.126C19.0184 15.1304 18.8084 16.0081 18.3887 16.7578C18.0305 17.3846 17.5561 17.8849 16.9688 18.2607H21.0244C21.3167 17.8837 21.5788 17.4582 21.8086 16.9834C22.2734 16.0537 22.5057 15.0932 22.5059 14.1035C22.5059 12.4988 22.1381 11.0805 21.4033 9.85059C20.6685 8.60588 19.6633 7.64568 18.3887 6.9707C17.1288 6.28077 15.7106 5.93562 14.1357 5.93555Z" fill="#05CE78"/>
<path d="M43.4199 8C44.8066 8 46.0597 8.30042 47.1797 8.90039C48.313 9.50037 49.1998 10.3533 49.8398 11.46C50.4932 12.5533 50.8203 13.8136 50.8203 15.2402C50.8203 16.2002 50.6063 17.1201 50.1797 18C49.8563 18.6568 49.4601 19.2101 48.9912 19.6602H45.4365C46.012 19.4535 46.5137 19.1473 46.9404 18.7402C47.8203 17.9136 48.2597 16.7467 48.2598 15.2402C48.2598 14.2536 48.0468 13.3863 47.6201 12.6396C47.1935 11.8931 46.6131 11.3199 45.8799 10.9199C45.1466 10.52 44.3265 10.3203 43.4199 10.3203C42.5134 10.3203 41.687 10.5201 40.9404 10.9199C40.2072 11.3199 39.6268 11.8932 39.2002 12.6396C38.7735 13.3863 38.5596 14.2536 38.5596 15.2402C38.5596 16.7601 38.9937 17.9331 39.8604 18.7598C40.7403 19.573 41.9267 19.9805 43.4199 19.9805C43.4444 19.9805 43.4689 19.9797 43.4932 19.9795C43.5222 19.9792 43.5512 19.9772 43.5801 19.9766V20.0605H51.0801V22.2803H43.7402C42.1802 22.2803 40.813 21.9933 39.6396 21.4199C38.4799 20.8466 37.5804 20.0265 36.9404 18.96C36.3138 17.8934 36 16.6535 36 15.2402C36 13.8136 36.32 12.5533 36.96 11.46C37.6133 10.3533 38.5002 9.50039 39.6201 8.90039C40.7534 8.3004 42.02 8.00001 43.4199 8Z" fill="black"/>
<path d="M51.0801 20.48L43.0801 20.48" stroke="black"/>
<path d="M55.72 22.3C54.5733 22.3 53.6333 22 52.9 21.4C52.1667 20.7867 51.8 19.9667 51.8 18.94C51.8 17.8733 52.1467 17.04 52.84 16.44C53.5333 15.84 54.5067 15.54 55.76 15.54C56.9733 15.54 58.02 15.7867 58.9 16.28V16.02C58.9 15.34 58.6867 14.8467 58.26 14.54C57.8467 14.2333 57.1733 14.08 56.24 14.08C55.6533 14.08 55.0733 14.14 54.5 14.26C53.9267 14.3667 53.42 14.52 52.98 14.72V12.74C53.38 12.5533 53.9133 12.4 54.58 12.28C55.26 12.16 55.9133 12.1 56.54 12.1C58.2067 12.1 59.44 12.46 60.24 13.18C61.04 13.8867 61.44 14.8733 61.44 16.14V22H59.06V21.06C58.6467 21.46 58.1733 21.7667 57.64 21.98C57.12 22.1933 56.48 22.3 55.72 22.3ZM56.34 20.46C56.9 20.46 57.4067 20.3533 57.86 20.14C58.3133 19.9133 58.66 19.6067 58.9 19.22V18.16C58.1667 17.64 57.3267 17.38 56.38 17.38C55.0333 17.38 54.36 17.9 54.36 18.94C54.36 19.4467 54.5267 19.8267 54.86 20.08C55.2067 20.3333 55.7 20.46 56.34 20.46ZM63.743 7.22H66.263V22H63.743V7.22ZM68.6648 7.22H71.1848V22H68.6648V7.22Z" fill="black"/>
</svg>
