<svg width="29" height="27" viewBox="0 0 29 27" fill="none" xmlns="http://www.w3.org/2000/svg">
<path d="M14.2803 0C25.7971 4.13836e-05 28.5596 2.6121 28.5596 13.5C28.5596 24.3879 25.7971 27 14.2803 27C2.7632 27 0 24.388 0 13.5C0 2.61202 2.7632 0 14.2803 0ZM14.1357 4.93555C12.5608 4.93555 11.1278 5.28077 9.83789 5.9707C8.56304 6.64569 7.55818 7.6057 6.82324 8.85059C6.0883 10.0805 5.7207 11.4986 5.7207 13.1035C5.72085 14.7081 6.08092 16.1108 6.80078 17.3105C7.5357 18.4952 8.57065 19.4108 9.90527 20.0557C11.2402 20.6855 12.7937 21.001 14.5635 21.001H22.8438V20H22.8457V18H13.8652C12.519 17.9504 11.4168 17.5272 10.5586 16.7256C9.65876 15.8558 9.20819 14.6555 9.20801 13.126C9.20801 12.1212 9.42551 11.2431 9.86035 10.4932C10.2954 9.72816 10.8812 9.14328 11.6162 8.73828C12.3661 8.33344 13.2059 8.13087 14.1357 8.13086C15.0504 8.13093 15.8755 8.33345 16.6104 8.73828C17.3601 9.14327 17.9463 9.72836 18.3662 10.4932C18.8009 11.243 19.0186 12.1213 19.0186 13.126C19.0184 14.1304 18.8084 15.0081 18.3887 15.7578C18.0305 16.3846 17.5561 16.8849 16.9688 17.2607H21.0244C21.3167 16.8837 21.5788 16.4582 21.8086 15.9834C22.2734 15.0537 22.5057 14.0932 22.5059 13.1035C22.5059 11.4988 22.1381 10.0805 21.4033 8.85059C20.6685 7.60588 19.6633 6.64568 18.3887 5.9707C17.1288 5.28077 15.7106 4.93562 14.1357 4.93555Z" fill="#05CE78"/>
</svg>
