<svg width="703" height="256" viewBox="0 0 703 256" fill="none" xmlns="http://www.w3.org/2000/svg">
<path d="M128 0C231.234 0 256 24.7658 256 128C256 231.234 231.234 256 128 256C24.7657 256 0 231.234 0 128C0 24.7658 24.7657 0 128 0ZM186.839 64.8721C169.052 44.5121 141.805 32.1101 112.394 37.5C112.346 37.5087 112.302 37.5257 112.262 37.5469C86.3749 43.7194 68.1906 56.4 56.7939 72.1953C45.3809 88.0137 40.797 106.927 42.0752 125.487C44.6293 162.57 70.594 198.31 112.341 205.219C112.381 205.23 112.424 205.239 112.468 205.239H207.225L207.229 205.238L206.234 204.239C206.496 204.239 207.708 205.023 207.708 204.757V162.341C207.708 162.203 207.65 162.079 207.559 161.991C207.472 161.899 207.351 161.84 207.216 161.84H118.571C97.0204 158.025 85.3077 140.184 84.7178 122.073C84.1294 104 94.6211 85.6992 117.513 80.8809C117.556 80.8834 117.6 80.8822 117.645 80.8721C131.342 77.7313 146.101 83.408 155.523 94.3887C164.929 105.351 169.007 121.594 161.335 139.601C161.279 139.731 161.287 139.873 161.341 139.993C161.349 140.252 161.558 140.459 161.814 140.459H203.94C203.954 140.465 203.967 140.473 203.98 140.478C204.266 140.477 204.496 140.418 204.576 140.165C212.99 113.592 204.622 85.2289 186.839 64.8721Z" fill="#05CE78"/>
<path fill-rule="evenodd" clip-rule="evenodd" d="M389.526 38.2612C418.938 32.8712 446.186 45.2732 463.972 65.6334C481.756 85.9903 490.123 114.353 481.709 140.927C481.629 141.18 481.398 141.238 481.113 141.238C481.099 141.234 481.086 141.226 481.073 141.22H438.947C438.691 141.22 438.482 141.013 438.474 140.754C438.42 140.634 438.413 140.493 438.468 140.362C446.14 122.355 442.063 106.112 432.657 95.15C423.235 84.1691 408.476 78.4926 394.778 81.6334C394.733 81.6435 394.689 81.6444 394.646 81.6419C371.754 86.4601 361.262 104.761 361.851 122.835C362.44 140.945 374.153 158.787 395.704 162.601H484.349C484.484 162.601 484.605 162.66 484.691 162.752C484.783 162.84 484.841 162.964 484.841 163.102V205.518C484.841 205.784 483.629 205 483.367 205L484.363 205.999L484.358 206H389.6C389.556 206 389.514 205.992 389.474 205.98C347.727 199.072 321.762 163.331 319.208 126.248C317.93 107.688 322.514 88.7749 333.927 72.9565C345.323 57.1611 363.508 44.4808 389.395 38.3083C389.435 38.2871 389.479 38.2699 389.526 38.2612ZM462.738 66.2374C445.163 46.1191 418.287 33.8886 389.296 39.1514C389.269 39.1635 389.241 39.1745 389.212 39.1815C363.449 45.2972 345.43 57.8771 334.165 73.4909C322.897 89.1078 318.364 107.79 319.628 126.144C322.156 162.853 347.859 198.187 389.136 205L483.367 205L483.367 163.529H395.133C395.096 163.529 395.06 163.523 395.025 163.515C372.966 159.615 360.98 141.335 360.378 122.831C359.774 104.306 370.577 85.5162 394.055 80.6343C394.096 80.6259 394.136 80.6245 394.176 80.6267C408.216 77.4659 423.253 83.3 432.846 94.4794C442.399 105.613 446.558 122.054 439.016 140.22H480.396C488.492 114.138 480.259 86.2931 462.738 66.2374Z" fill="white"/>
<path d="M462.738 66.2374C445.163 46.1191 418.287 33.8886 389.296 39.1514C389.269 39.1635 389.241 39.1745 389.212 39.1815C363.449 45.2972 345.43 57.8771 334.165 73.4909C322.897 89.1078 318.364 107.79 319.628 126.144C322.156 162.853 347.859 198.187 389.136 205L483.367 205L483.367 163.529H395.133C395.096 163.529 395.06 163.523 395.025 163.515C372.966 159.615 360.98 141.335 360.378 122.831C359.774 104.306 370.577 85.5162 394.055 80.6343C394.096 80.6259 394.136 80.6245 394.176 80.6267C408.216 77.4659 423.253 83.3 432.846 94.4794C442.399 105.613 446.558 122.054 439.016 140.22H480.396C488.492 114.138 480.259 86.2931 462.738 66.2374Z" fill="white"/>
<g filter="url(#filter0_d_108_10)">
<path d="M538.82 207.562C528.664 207.562 520.363 204.763 513.918 199.164C507.538 193.565 504.348 185.818 504.348 175.922C504.348 166.417 507.538 158.865 513.918 153.266C520.363 147.602 529.673 144.77 541.848 144.77H566.066V136.078C566.066 131.781 564.797 128.493 562.258 126.215C559.719 123.936 556.236 122.797 551.809 122.797C548.879 122.797 546.34 123.318 544.191 124.359C542.043 125.336 540.383 126.736 539.211 128.559C538.039 130.382 537.388 132.465 537.258 134.809H508.156C508.352 130.577 509.198 126.41 510.695 122.309C512.258 118.207 514.699 114.496 518.02 111.176C521.405 107.79 525.897 105.121 531.496 103.168C537.095 101.15 544.029 100.141 552.297 100.141C560.63 100.141 568.15 101.41 574.855 103.949C581.561 106.423 586.867 110.329 590.773 115.668C594.68 120.941 596.633 127.875 596.633 136.469V206H567.531V193.5H566.066C564.895 195.909 563.137 198.188 560.793 200.336C558.514 202.419 555.552 204.145 551.906 205.512C548.326 206.879 543.964 207.562 538.82 207.562ZM549.562 185.883C552.492 185.883 555.227 185.329 557.766 184.223C560.305 183.051 562.323 181.423 563.82 179.34C565.318 177.257 566.066 174.815 566.066 172.016V161.664H550.051C545.168 161.664 541.457 162.771 538.918 164.984C536.379 167.133 535.109 169.965 535.109 173.48C535.109 177.647 536.574 180.772 539.504 182.855C542.499 184.874 545.852 185.883 549.562 185.883ZM611.387 206V65.668H642.539V206H611.387ZM659.051 206V65.668H690.203V206H659.051Z" fill="white"/>
</g>
<defs>
<filter id="filter0_d_108_10" x="500.348" y="65.668" width="193.855" height="149.895" filterUnits="userSpaceOnUse" color-interpolation-filters="sRGB">
<feFlood flood-opacity="0" result="BackgroundImageFix"/>
<feColorMatrix in="SourceAlpha" type="matrix" values="0 0 0 0 0 0 0 0 0 0 0 0 0 0 0 0 0 0 127 0" result="hardAlpha"/>
<feOffset dy="4"/>
<feGaussianBlur stdDeviation="2"/>
<feComposite in2="hardAlpha" operator="out"/>
<feColorMatrix type="matrix" values="0 0 0 0 0 0 0 0 0 0 0 0 0 0 0 0 0 0 0.25 0"/>
<feBlend mode="normal" in2="BackgroundImageFix" result="effect1_dropShadow_108_10"/>
<feBlend mode="normal" in="SourceGraphic" in2="effect1_dropShadow_108_10" result="shape"/>
</filter>
</defs>
</svg>
